# xmcd
# 
# Track frame offsets:
#     182
#     16712
#     41337
#     54862
#     65912
#     80187
#     92062
#     109415
#     124200
#     138962
#     154120
#     169025
# 
# Disc length: 2450
# 
# Revision: 1
# Processed by: cddbd v1.5.2PL0 Copyright (c) Steve Scherf et al.
# Submitted via: BonkEnc v1.0.15
# 
DISCID=9c09900c
DTITLE=Chavela Vargas - Chavela Vargas
DYEAR=1993
DGENRE=Blues
TTITLE0=No Volvere
TTITLE1=La LLorona
TTITLE2=La niña Isabel
TTITLE3=Rayando el Sol
TTITLE4=El  dia que me dijiste
TTITLE5=La Churrasca
TTITLE6=Manzanita
TTITLE7=Un Mundo Raro
TTITLE8=Paloma Negra
TTITLE9=Golondrina Viajera
TTITLE10=Desdeñosa
TTITLE11=Adios Paloma
EXTD=Chavela Vargas
EXTT0=
EXTT1=
EXTT2=
EXTT3=
EXTT4=
EXTT5=
EXTT6=
EXTT7=
EXTT8=
EXTT9=
EXTT10=
EXTT11=
PLAYORDER=
